<?xml version="1.0" encoding="UTF-8" standalone="no"?>
<!-- Created with Inkscape (http://www.inkscape.org/) -->

<svg
   xmlns:dc="http://purl.org/dc/elements/1.1/"
   xmlns:cc="http://creativecommons.org/ns#"
   xmlns:rdf="http://www.w3.org/1999/02/22-rdf-syntax-ns#"
   xmlns:svg="http://www.w3.org/2000/svg"
   xmlns="http://www.w3.org/2000/svg"
   xmlns:sodipodi="http://sodipodi.sourceforge.net/DTD/sodipodi-0.dtd"
   xmlns:inkscape="http://www.inkscape.org/namespaces/inkscape"
   id="svg3229"
   height="16"
   width="16"
   version="1.0"
   inkscape:version="0.92.3 (2405546, 2018-03-11)"
   sodipodi:docname="clipit-light.svg">
  <defs
     id="defs8" />
  <sodipodi:namedview
     pagecolor="#ffffff"
     bordercolor="#666666"
     borderopacity="1"
     objecttolerance="10"
     gridtolerance="10"
     guidetolerance="10"
     inkscape:pageopacity="0"
     inkscape:pageshadow="2"
     inkscape:window-width="1301"
     inkscape:window-height="744"
     id="namedview6"
     showgrid="true"
     showguides="false"
     inkscape:zoom="30.34131"
     inkscape:cx="6.8933491"
     inkscape:cy="10.219611"
     inkscape:window-x="65"
     inkscape:window-y="24"
     inkscape:window-maximized="1"
     inkscape:current-layer="svg3229"
     inkscape:snap-smooth-nodes="true">
    <inkscape:grid
       type="xygrid"
       id="grid2985"
       empspacing="5"
       visible="true"
       enabled="true"
       snapvisiblegridlinesonly="true" />
  </sodipodi:namedview>
  <metadata
     id="metadata9">
    <rdf:RDF>
      <cc:Work
         rdf:about="">
        <dc:format>image/svg+xml</dc:format>
        <dc:type
           rdf:resource="http://purl.org/dc/dcmitype/StillImage" />
        <dc:title></dc:title>
      </cc:Work>
    </rdf:RDF>
  </metadata>
  <path
     inkscape:connector-curvature="0"
     id="path816-7-5-3"
     style="opacity:0.3;fill:#000000;fill-opacity:1;stroke:none"
     d="m 2,12 v 1 c 0,0.554 0.446,1 1,1 H 6.0000002 L 6,12 Z"
     sodipodi:nodetypes="cssccc" />
  <g
     id="g2992"
     transform="translate(-4.9999995,-3)">
    <path
       style="fill:#7f7d77;fill-opacity:1;stroke:#3c3c3c;stroke-width:0;stroke-linecap:butt;stroke-linejoin:miter;stroke-miterlimit:4;stroke-dasharray:none;stroke-opacity:1"
       d="M 7,1 C 6.3531597,1 5.8022322,1.4209721 5.59375,2 H 3 C 2.446,2 2,2.5285955 2,3 v 9 c 0,0.471405 0.446,1 1,1 H 6 V 12 H 3 V 4 h 8 v 3 h 1 V 3 C 12,2.5285955 11.554,2 11,2 H 8.40625 C 8.1977678,1.4209721 7.6468403,1 7,1 Z M 7,2 C 7.2820647,2 7.5,2.2179353 7.5,2.5 7.5,2.7820647 7.2820647,3 7,3 6.7179353,3 6.5,2.7820647 6.5,2.5 6.5,2.2179353 6.7179353,2 7,2 Z M 4,5 v 1 h 6 V 5 Z M 4,7 V 8 H 6.3242188 C 6.6802935,7.4976442 7.2954663,7.1640625 8,7.1640625 L 8.0000005,7 Z m 0,2 v 1 H 6 V 9 Z"
       transform="translate(4.9999995,3)"
       id="path878"
       inkscape:connector-curvature="0"
       sodipodi:nodetypes="scsssscccccccsscsssssscccccccccccccccc" />
  </g>
  <path
     inkscape:connector-curvature="0"
     id="path816-7-5"
     style="opacity:0.3;fill:#000000;fill-opacity:1;stroke:none"
     d="m 7,14 v 1 c 0,0.554 0.446,1 1,1 h 6 c 0.554,0 1,-0.446 1,-1 v -1 z"
     sodipodi:nodetypes="csssscc" />
  <path
     inkscape:connector-curvature="0"
     id="path816-7-56"
     style="fill:#7f7d77;fill-opacity:1;stroke:none"
     d="m 9,10 v 1 h 4 v -1 z m 0,2 v 1 h 2 V 12 Z M 8,8 C 7.446,8 7,8.446 7,9 v 1 2 2 c 0,0.554 0.446,1 1,1 h 6 c 0.554,0 1,-0.446 1,-1 V 12 10 9 C 15,8.446 14.554,8 14,8 Z m 0.75,1 h 4.5 C 13.6655,9 14,9.3345 14,9.75 V 14 H 8 V 9.75 C 8,9.3345 8.3345,9 8.75,9 Z"
     sodipodi:nodetypes="ccccccccccssccssssccssssssccss" />
</svg>
